<?xml version="1.0" encoding="utf-8"?>
<!-- Generator: Adobe Illustrator 24.0.1, SVG Export Plug-In . SVG Version: 6.00 Build 0)  -->
<svg version="1.2" baseProfile="tiny" id="g-n7mjL-the-history-in-the-streets-of-harlem-rgb-_1_-Mesa_de_trabajo_1-interactive-img" xmlns="http://www.w3.org/2000/svg" xmlns:xlink="http://www.w3.org/1999/xlink"
	 x="0px" y="0px" viewBox="0 0 900 836.083" xml:space="preserve">
<g>
	<path id="selection_1_" fill="#00DCA6" fill-opacity="0.2" stroke="#4DB58D" stroke-miterlimit="10" d="M406.7,687.9L308,639.7
		l-46.3-26.2l19.5-33.9l-4.9-41.5l48.7-72.2l-35.3-19.7l11-23l-35.3-21.9l18.3-29.5l-36.6-52.5l35.3-55.8l2.4-13.1l-17.1-15.3
		l32.9-54.7l12.2-10.9l18.3,2.2l41.4-56.9L395.6,70L408,53.7l213.2,111.5v94l3.7,84.2l-69.4,115.9l-45.1,75.4l-3.7,4.4l18.3,12
		l-23.1,41.5l-24.4-9.8l-28,43.7L426.2,666L406.7,687.9z"/>
	<g id="cream_1_">
		<path id="cream2_1_" fill="#FFE59C" d="M295.5,564c0,6.7-6,12.1-13.5,12.1s-13.5-5.4-13.5-12.1s6-12.1,13.5-12.1
			S295.5,557.3,295.5,564z"/>
		<path id="cream1_1_" fill="#FFE59C" d="M352.5,445.6c0,6.7-6,12.1-13.5,12.1s-13.5-5.4-13.5-12.1s6-12.1,13.5-12.1
			S352.5,438.9,352.5,445.6z"/>
	</g>
	<g id="blue_1_">
		<path id="blue3_1_" fill="#1D81A2" d="M298.5,627.3c0,6.7-6,12.1-13.5,12.1s-13.5-5.4-13.5-12.1c0-6.7,6-12.1,13.5-12.1
			S298.5,620.6,298.5,627.3z"/>
		<path id="blue2_1_" fill="#1D81A2" d="M375,498c0,6.7-6,12.1-13.5,12.1S348,504.7,348,498s6-12.1,13.5-12.1S375,491.4,375,498z"/>
	</g>
	<g id="red_1_">
		<path id="red2_1_" fill="#C71E1D" d="M300,576.1c0,6.7-6,12.1-13.5,12.1s-13.5-5.4-13.5-12.1s6-12.1,13.5-12.1
			S300,569.4,300,576.1z"/>
		<path id="red1_1_" fill="#C71E1D" d="M445.5,262.5c0,6.7-6,12.1-13.5,12.1s-13.5-5.4-13.5-12.1c0-6.7,6-12.1,13.5-12.1
			S445.5,255.8,445.5,262.5z"/>
	</g>
	<g id="orange_1_">
		<path id="orange5_1_" fill="#FA8C00" d="M472.5,379.6c0,6.7-6,12.1-13.5,12.1s-13.5-5.4-13.5-12.1s6-12.1,13.5-12.1
			S472.5,372.9,472.5,379.6z"/>
		<path id="orange4_1_" fill="#FA8C00" d="M417,126.5c0,6.7-6,12.1-13.5,12.1s-13.5-5.4-13.5-12.1c0-6.7,6-12.1,13.5-12.1
			S417,119.8,417,126.5z"/>
		<path id="orange3_1_" fill="#FA8C00" d="M397.5,469.8c0,6.7-6,12.1-13.5,12.1s-13.5-5.4-13.5-12.1s6-12.1,13.5-12.1
			S397.5,463.1,397.5,469.8z"/>
		<path id="orange2_1_" fill="#FA8C00" d="M633,344.6c0,6.7-6,12.1-13.5,12.1s-13.5-5.4-13.5-12.1s6-12.1,13.5-12.1
			S633,337.9,633,344.6z"/>
		<path id="orange1_1_" fill="#FA8C00" d="M444,484.6c0,6.7-6,12.1-13.5,12.1s-13.5-5.4-13.5-12.1s6-12.1,13.5-12.1
			S444,477.9,444,484.6z"/>
	</g>
</g>
<style>
#g-n7mjL-the-history-in-the-streets-of-harlem-rgb-_1_-Mesa_de_trabajo_1-interactive-img rect, #g-n7mjL-the-history-in-the-streets-of-harlem-rgb-_1_-Mesa_de_trabajo_1-interactive-img circle, #g-n7mjL-the-history-in-the-streets-of-harlem-rgb-_1_-Mesa_de_trabajo_1-interactive-img path, #g-n7mjL-the-history-in-the-streets-of-harlem-rgb-_1_-Mesa_de_trabajo_1-interactive-img line, #g-n7mjL-the-history-in-the-streets-of-harlem-rgb-_1_-Mesa_de_trabajo_1-interactive-img polyline, #g-n7mjL-the-history-in-the-streets-of-harlem-rgb-_1_-Mesa_de_trabajo_1-interactive-img polygon { vector-effect: non-scaling-stroke; }
</style>
</svg>

